<?xml version="1.0" standalone="no"?>
<!DOCTYPE svg PUBLIC "-//W3C//DTD SVG 20010904//EN"
 "http://www.w3.org/TR/2001/REC-SVG-20010904/DTD/svg10.dtd">
<svg version="1.0" xmlns="http://www.w3.org/2000/svg"
 width="904.000000pt" height="904.000000pt" viewBox="0 0 904.000000 904.000000"
 preserveAspectRatio="xMidYMid meet">
<metadata>
Created by potrace 1.14, written by Peter Selinger 2001-2017
</metadata>
<g transform="translate(0.000000,904.000000) scale(0.100000,-0.100000)"
fill="#000000" stroke="none">
<path d="M8830 8824 c-558 -67 -1426 -246 -1985 -409 -88 -26 -182 -53 -210
-61 -100 -27 -503 -167 -664 -231 -422 -166 -788 -352 -1066 -540 l-110 -75
-150 51 c-995 334 -2376 399 -3910 186 -212 -30 -526 -84 -655 -113 -43 -10
-44 -1 25 -202 120 -350 304 -824 442 -1135 122 -277 170 -380 299 -640 325
-658 661 -1198 980 -1574 43 -51 90 -106 103 -122 21 -26 24 -42 32 -191 77
-1389 415 -2178 1323 -3083 163 -162 512 -484 535 -493 8 -3 280 187 496 347
805 597 1331 1139 1697 1751 250 417 436 856 633 1495 l37 120 172 175 c248
252 431 479 636 785 568 851 1061 2042 1375 3320 62 252 135 605 135 649 0 8
-33 6 -170 -10z m-256 -411 c-16 -90 -122 -491 -179 -683 -21 -69 -44 -147
-52 -175 -27 -99 -154 -477 -230 -680 -258 -695 -568 -1323 -896 -1815 -216
-323 -445 -601 -682 -826 l-145 -139 -27 -85 c-211 -680 -338 -1004 -540
-1375 -220 -402 -437 -689 -798 -1051 -312 -314 -604 -555 -1130 -936 l-50
-36 -60 55 c-549 511 -856 888 -1080 1328 -250 491 -384 1103 -411 1882 l-7
192 -76 83 c-317 348 -599 763 -902 1330 -104 196 -302 604 -403 833 -95 217
-106 241 -165 380 -68 163 -263 667 -258 671 1 1 94 16 207 33 276 41 603 80
785 92 83 5 206 14 275 20 200 17 933 23 1153 10 467 -29 731 -61 1072 -131
296 -61 559 -138 768 -224 47 -20 91 -36 98 -36 7 0 46 26 88 58 95 74 225
160 361 242 108 65 475 248 590 295 332 135 392 157 690 254 588 191 1059 304
1870 450 150 27 142 28 134 -16z"/>
<path d="M8270 8055 c-36 -7 -144 -27 -240 -44 -652 -118 -1074 -255 -1480
-479 -317 -175 -664 -456 -1022 -828 l-87 -90 73 -104 c39 -58 130 -188 201
-290 141 -203 306 -441 412 -594 37 -54 88 -127 113 -162 25 -34 92 -131 149
-214 61 -90 108 -149 116 -146 7 2 61 42 121 87 432 329 770 652 995 949 152
202 336 539 429 784 49 130 135 391 145 438 3 18 17 69 30 113 12 44 37 145
55 225 18 80 43 189 56 242 13 53 24 104 24 112 0 18 -3 18 -90 1z m-360 -439
c-5 -13 -20 -68 -34 -122 -108 -426 -297 -838 -524 -1144 -156 -209 -383 -443
-628 -645 -66 -54 -126 -104 -135 -112 -16 -14 -16 -14 -538 740 -35 51 -88
126 -117 168 l-54 77 103 98 c209 201 450 389 656 513 325 195 634 309 1161
429 118 27 122 27 110 -2z"/>
<path d="M1765 7365 c-5 -2 -86 -9 -180 -15 -93 -5 -242 -21 -330 -35 -88 -13
-180 -25 -205 -25 -25 0 -50 -4 -57 -8 -11 -7 6 -65 108 -372 72 -218 175
-495 239 -645 207 -483 404 -809 708 -1175 76 -92 403 -440 413 -440 4 0 61
71 126 158 170 226 623 826 783 1037 121 160 353 467 628 832 51 67 92 124 92
128 0 3 -20 14 -45 25 -25 11 -123 56 -218 100 -297 140 -382 174 -637 259
-404 135 -713 182 -1180 180 -129 0 -239 -2 -245 -4z m635 -345 c373 -46 735
-150 1117 -322 l53 -23 -68 -90 c-37 -50 -182 -241 -321 -425 -139 -184 -364
-483 -499 -663 l-247 -328 -50 53 c-118 127 -311 383 -416 553 -185 299 -388
756 -519 1168 l-18 57 31 1 c18 0 84 6 147 14 141 16 672 19 790 5z"/>
<path d="M4710 6188 c-480 -323 -778 -619 -1039 -1033 -131 -206 -481 -869
-481 -909 0 -10 14 -17 38 -21 20 -3 114 -18 207 -35 454 -78 614 -93 940 -88
248 4 267 6 414 37 178 38 339 91 496 164 184 85 405 211 405 231 0 52 -25
258 -45 376 -95 546 -261 853 -666 1231 -71 65 -136 119 -146 119 -10 -1 -65
-33 -123 -72z m174 -431 c212 -233 304 -398 377 -676 26 -98 74 -371 67 -376
-154 -95 -434 -201 -625 -235 -249 -45 -426 -47 -758 -9 -223 25 -255 29 -255
34 0 2 22 45 50 96 28 51 50 94 50 96 0 7 112 195 174 293 180 283 435 561
696 757 74 56 138 102 142 103 3 0 40 -37 82 -83z"/>
<path d="M5760 3751 c-30 -10 -104 -33 -165 -51 -60 -18 -144 -43 -185 -55
-289 -87 -465 -129 -685 -165 -186 -31 -195 -32 -450 -28 -214 4 -280 9 -375
27 -200 38 -398 91 -625 168 -228 76 -287 94 -293 88 -8 -8 74 -663 103 -825
103 -560 248 -909 541 -1295 102 -134 155 -200 164 -203 11 -4 294 152 431
238 317 200 595 456 826 761 164 216 355 521 523 834 23 44 71 132 105 195
117 216 165 310 165 320 0 13 -15 12 -80 -9z m-2240 -536 c47 -13 103 -27 125
-30 22 -4 76 -16 120 -26 212 -49 594 -64 870 -35 144 15 450 73 508 95 l27
11 -15 -31 c-35 -68 -143 -242 -228 -369 -299 -446 -560 -698 -994 -958 l-52
-31 -44 62 c-169 237 -271 461 -351 772 -36 140 -91 424 -101 518 l-5 57 27
-6 c16 -3 66 -16 113 -29z"/>
</g>
</svg>
