<svg>
<symbol id="paimon" width="43" height="46" viewBox="0 0 43 46" fill="none" xmlns="http://www.w3.org/2000/svg">
    <path d="M6.32312 10.6454C7.9662 15.8958 9.1946 18.2497 12.0761 21.3549L18.5058 12.5455C14.1928 10.4197 11.5534 9.91455 6.32312 10.6454Z" fill="#C8C8C8" fill-opacity="0.1"/>
    <path d="M38.4719 7.19077C33.2898 8.1485 30.6809 9.28932 26.966 13.2365L31.0269 19.2821C35.7998 15.536 37.2638 12.8014 38.4719 7.19077Z" fill="#C8C8C8" fill-opacity="0.1"/>
    <path d="M16.6446 23.9459C21.0804 24.7521 23.257 24.6113 26.2892 22.7368C25.9364 19.4506 25.3022 17.8924 23.0743 15.8275C19.8445 18.0058 18.5485 19.9377 16.6446 23.9459Z" fill="#C8C8C8" fill-opacity="0.1"/>
    <path d="M18.5058 37.0737C22.0574 35.1419 23.7329 33.0869 26.2892 28.0916C22.2641 29.3407 19.95 29.6892 15.4601 28.0916C15.9336 32.5956 16.5817 34.5891 18.5058 37.0737Z" fill="#C8C8C8" fill-opacity="0.1"/>
    <path fill-rule="evenodd" clip-rule="evenodd" d="M1.92383 8.91811C1.92383 8.91811 5.57321 20.2975 10.5532 25.6733C10.8232 33.7491 12.5555 37.5485 18.5058 42.9467C25.893 37.6058 28.7608 33.8957 31.0269 25.6733C38.7822 18.6289 41.5175 3.39062 41.5175 3.39062C41.5175 3.39062 29.1326 4.92671 23.0743 9.78177C14.5986 6.23327 1.92383 8.91811 1.92383 8.91811ZM12.0761 21.3549C9.1946 18.2497 7.9662 15.8958 6.32312 10.6454C11.5534 9.91455 14.1928 10.4197 18.5058 12.5455L12.0761 21.3549ZM26.2892 22.7368C23.257 24.6113 21.0804 24.7521 16.6446 23.9459C18.5485 19.9377 19.8445 18.0058 23.0743 15.8275C25.3022 17.8924 25.9364 19.4506 26.2892 22.7368ZM26.966 13.2365C30.6809 9.28932 33.2898 8.1485 38.4719 7.19077C37.2638 12.8014 35.7998 15.536 31.0269 19.2821L26.966 13.2365ZM26.2892 28.0916C23.7329 33.0869 22.0574 35.1419 18.5058 37.0737C16.5817 34.5891 15.9336 32.5956 15.4601 28.0916C19.95 29.6892 22.2641 29.3407 26.2892 28.0916Z" fill="#C8C8C8" fill-opacity="0.1"/>
    <path d="M6.32312 10.6454C7.9662 15.8958 9.1946 18.2497 12.0761 21.3549L18.5058 12.5455C14.1928 10.4197 11.5534 9.91455 6.32312 10.6454Z" stroke="#C8C8C8" stroke-width="2"/>
    <path d="M38.4719 7.19077C33.2898 8.1485 30.6809 9.28932 26.966 13.2365L31.0269 19.2821C35.7998 15.536 37.2638 12.8014 38.4719 7.19077Z" stroke="#C8C8C8" stroke-width="2"/>
    <path d="M16.6446 23.9459C21.0804 24.7521 23.257 24.6113 26.2892 22.7368C25.9364 19.4506 25.3022 17.8924 23.0743 15.8275C19.8445 18.0058 18.5485 19.9377 16.6446 23.9459Z" stroke="#C8C8C8" stroke-width="2"/>
    <path d="M18.5058 37.0737C22.0574 35.1419 23.7329 33.0869 26.2892 28.0916C22.2641 29.3407 19.95 29.6892 15.4601 28.0916C15.9336 32.5956 16.5817 34.5891 18.5058 37.0737Z" stroke="#C8C8C8" stroke-width="2"/>
    <path fill-rule="evenodd" clip-rule="evenodd" d="M1.92383 8.91811C1.92383 8.91811 5.57321 20.2975 10.5532 25.6733C10.8232 33.7491 12.5555 37.5485 18.5058 42.9467C25.893 37.6058 28.7608 33.8957 31.0269 25.6733C38.7822 18.6289 41.5175 3.39062 41.5175 3.39062C41.5175 3.39062 29.1326 4.92671 23.0743 9.78177C14.5986 6.23327 1.92383 8.91811 1.92383 8.91811ZM12.0761 21.3549C9.1946 18.2497 7.9662 15.8958 6.32312 10.6454C11.5534 9.91455 14.1928 10.4197 18.5058 12.5455L12.0761 21.3549ZM26.2892 22.7368C23.257 24.6113 21.0804 24.7521 16.6446 23.9459C18.5485 19.9377 19.8445 18.0058 23.0743 15.8275C25.3022 17.8924 25.9364 19.4506 26.2892 22.7368ZM26.966 13.2365C30.6809 9.28932 33.2898 8.1485 38.4719 7.19077C37.2638 12.8014 35.7998 15.536 31.0269 19.2821L26.966 13.2365ZM26.2892 28.0916C23.7329 33.0869 22.0574 35.1419 18.5058 37.0737C16.5817 34.5891 15.9336 32.5956 15.4601 28.0916C19.95 29.6892 22.2641 29.3407 26.2892 28.0916Z" stroke="#C8C8C8" stroke-width="2"/>
</symbol>
</svg>